<svg width="1153" height="1153" viewBox="0 0 1153 1153" fill="none" xmlns="http://www.w3.org/2000/svg">
<g clip-path="url(#clip0_242_7)">
<path d="M711.212 442.879C714.074 303.419 603.34 188.044 463.879 185.182C324.419 182.32 209.044 293.055 206.182 432.515C203.32 571.975 314.055 687.35 453.515 690.212C592.975 693.074 708.35 582.339 711.212 442.879Z" fill="#217C97" fill-opacity="0.1"/>
<path d="M1005.24 796.362C1009.38 793.235 1015.35 795.767 1015.98 800.914L1047.87 1058.64C1048.5 1063.79 1043.33 1067.69 1038.55 1065.67L799.512 964.4C794.736 962.373 793.941 955.939 798.078 952.812L1005.24 796.362Z" fill="#F3D2F2" fill-opacity="0.1"/>
<path d="M994.464 347.872C1055.27 298.34 1064.4 208.896 1014.87 148.093C965.34 87.2904 875.896 78.1534 815.093 127.685C754.29 177.217 745.153 266.661 794.685 327.464C844.217 388.267 933.661 397.404 994.464 347.872Z" fill="#217C97" fill-opacity="0.1"/>
<path d="M274.911 957.767C279.525 959.436 280.596 965.476 276.842 968.636L88.8822 1126.85C85.1288 1130.01 79.3665 1127.91 78.5055 1123.09L35.5332 881.27C34.678 876.437 39.3699 872.488 43.9843 874.157L274.911 957.767Z" fill="#F3D2F2" fill-opacity="0.1"/>
<path d="M115.723 236.138C114.641 237.861 112.101 237.763 111.151 235.965L63.5922 145.928C62.6425 144.13 63.9959 141.98 66.0271 142.056L167.748 145.906C169.781 145.985 170.968 148.232 169.887 149.954L115.723 236.138Z" fill="#F3D2F2" fill-opacity="0.1"/>
<path d="M608.558 922.379C625.9 908.252 628.506 882.742 614.379 865.4C600.252 848.058 574.742 845.452 557.4 859.579C540.058 873.706 537.452 899.217 551.579 916.559C565.706 933.9 591.217 936.506 608.558 922.379Z" fill="#49556C" fill-opacity="0.1"/>
</g>
<defs>
<clipPath id="clip0_242_7">
<rect width="1153" height="1153" fill="white"/>
</clipPath>
</defs>
</svg>
