<svg width="2322" height="1120" viewBox="0 0 2322 1120" fill="none" xmlns="http://www.w3.org/2000/svg">
<g clip-path="url(#clip0_231_2)">
<path d="M492.236 967.011C492.933 933.052 465.969 904.959 432.011 904.262C398.052 903.565 369.959 930.529 369.262 964.487C368.565 998.445 395.529 1026.54 429.487 1027.24C463.445 1027.93 491.539 1000.97 492.236 967.011Z" fill="#49556C" fill-opacity="0.03"/>
<path d="M1720.46 720.584C1723.53 570.67 1604.5 446.647 1454.58 443.571C1304.67 440.494 1180.65 559.529 1177.57 709.443C1174.49 859.357 1293.53 983.38 1443.44 986.456C1593.36 989.533 1717.38 870.498 1720.46 720.584Z" fill="#217C97" fill-opacity="0.03"/>
<path d="M181.809 258.674C182.829 208.979 143.369 167.866 93.6742 166.846C43.979 165.827 2.8664 205.286 1.84657 254.981C0.826736 304.676 40.2859 345.789 89.9811 346.808C139.676 347.828 180.789 308.369 181.809 258.674Z" fill="#217C97" fill-opacity="0.03"/>
<path d="M2268.24 419.362C2272.38 416.235 2278.35 418.767 2278.98 423.914L2310.87 681.64C2311.5 686.786 2306.33 690.688 2301.55 688.668L2062.51 587.4C2057.74 585.373 2056.94 578.939 2061.08 575.812L2268.24 419.362Z" fill="#F3D2F2" fill-opacity="0.03"/>
<path d="M926.911 467.767C931.525 469.436 932.596 475.476 928.842 478.636L740.882 636.846C737.129 640.005 731.366 637.914 730.505 633.086L687.533 391.27C686.678 386.437 691.37 382.488 695.984 384.157L926.911 467.767Z" fill="#F3D2F2" fill-opacity="0.03"/>
<path d="M94.592 786.925C94.02 788.441 92.0211 788.766 90.9954 787.513L39.6306 724.738C38.6049 723.484 39.3216 721.592 40.9193 721.33L120.944 708.254C122.543 707.994 123.825 709.561 123.253 711.076L94.592 786.925Z" fill="#F3D2F2" fill-opacity="0.03"/>
<path d="M1862.83 1112.64C1864.3 1115.94 1861.52 1119.51 1857.83 1119.07L1673.19 1096.96C1669.5 1096.52 1667.67 1092.39 1669.89 1089.53L1781.1 946.425C1783.32 943.566 1787.93 944.118 1789.4 947.419L1862.83 1112.64Z" fill="#F3D2F2" fill-opacity="0.03"/>
<path d="M2199.56 1024.38C2216.9 1010.25 2219.51 984.742 2205.38 967.4C2191.25 950.058 2165.74 947.452 2148.4 961.579C2131.06 975.706 2128.45 1001.22 2142.58 1018.56C2156.71 1035.9 2182.22 1038.51 2199.56 1024.38Z" fill="#49556C" fill-opacity="0.03"/>
<path d="M1182.56 174.379C1199.9 160.252 1202.51 134.742 1188.38 117.4C1174.25 100.058 1148.74 97.4524 1131.4 111.579C1114.06 125.706 1111.45 151.217 1125.58 168.559C1139.71 185.9 1165.22 188.506 1182.56 174.379Z" fill="#49556C" fill-opacity="0.03"/>
<path d="M2015.46 309.872C2076.27 260.34 2085.4 170.896 2035.87 110.093C1986.34 49.2904 1896.9 40.1534 1836.09 89.6853C1775.29 139.217 1766.15 228.661 1815.69 289.464C1865.22 350.267 1954.66 359.404 2015.46 309.872Z" fill="#217C97" fill-opacity="0.03"/>
</g>
<defs>
<clipPath id="clip0_231_2">
<rect width="2321.56" height="1119.49" fill="white"/>
</clipPath>
</defs>
</svg>
