<svg width="1920" height="3560" viewBox="0 0 1920 3560" fill="none" xmlns="http://www.w3.org/2000/svg">
<g clip-path="url(#clip0_226_2)">
<path d="M1920 346C2015.55 346 2093 268.545 2093 173C2093 77.4547 2015.55 0 1920 0C1824.45 0 1747 77.4547 1747 173C1747 268.545 1824.45 346 1920 346Z" fill="#217C97" fill-opacity="0.7"/>
<path d="M1699.24 1021.36C1698.62 1015.14 1704.96 1010.59 1710.66 1013.16L1995.64 1141.87C2001.33 1144.45 2002.1 1152.22 1997.03 1155.86L1743.07 1338.3C1737.99 1341.94 1730.88 1338.73 1730.26 1332.52L1699.24 1021.36Z" fill="#217C97" fill-opacity="0.7"/>
<path d="M-114.567 182.287C-119.215 180.957 -120.684 175.117 -117.215 171.767L56.3357 4.34983C59.8081 1.01002 65.6132 2.67537 66.7888 7.34576L125.755 241.32C126.928 245.998 122.599 250.175 117.958 248.847L-114.567 182.287Z" fill="#217C97" fill-opacity="0.1"/>
<path d="M90.4721 2908.84C95.1097 2904.66 102.538 2907.07 103.842 2913.18L169.109 3218.99C170.413 3225.1 164.613 3230.32 158.672 3228.4L-138.803 3132.02C-144.746 3130.09 -146.375 3122.45 -141.738 3118.27L90.4721 2908.84Z" fill="#F3D2F2" fill-opacity="0.7"/>
<path d="M608.905 2358.1C614.088 2358.29 617.117 2364.02 614.36 2368.41L476.302 2588.37C473.545 2592.76 467.07 2592.52 464.644 2587.94L343.272 2358.45C340.85 2353.86 344.296 2348.37 349.48 2348.56L608.905 2358.1Z" fill="#F3D2F2" fill-opacity="0.1"/>
<path d="M617.5 1211C651.466 1211 679 1183.47 679 1149.5C679 1115.53 651.466 1088 617.5 1088C583.534 1088 556 1115.53 556 1149.5C556 1183.47 583.534 1211 617.5 1211Z" fill="#49556C" fill-opacity="0.05"/>
<path d="M808.5 2599C830.868 2599 849 2580.87 849 2558.5C849 2536.13 830.868 2518 808.5 2518C786.132 2518 768 2536.13 768 2558.5C768 2580.87 786.132 2599 808.5 2599Z" fill="#49556C" fill-opacity="0.05"/>
<path d="M1556.5 1605C1578.87 1605 1597 1586.87 1597 1564.5C1597 1542.13 1578.87 1524 1556.5 1524C1534.13 1524 1516 1542.13 1516 1564.5C1516 1586.87 1534.13 1605 1556.5 1605Z" fill="#49556C" fill-opacity="0.05"/>
<path d="M-222 2478C-29.2526 2478 127 2321.75 127 2129C127 1936.25 -29.2526 1780 -222 1780C-414.747 1780 -571 1936.25 -571 2129C-571 2321.75 -414.747 2478 -222 2478Z" fill="#F3D2F2" fill-opacity="0.7"/>
<path d="M1309 3449C1501.75 3449 1658 3292.75 1658 3100C1658 2907.25 1501.75 2751 1309 2751C1116.25 2751 960 2907.25 960 3100C960 3292.75 1116.25 3449 1309 3449Z" fill="#F3D2F2" fill-opacity="0.1"/>
<path d="M1999.5 3232C2131.77 3232 2239 3124.77 2239 2992.5C2239 2860.23 2131.77 2753 1999.5 2753C1867.23 2753 1760 2860.23 1760 2992.5C1760 3124.77 1867.23 3232 1999.5 3232Z" fill="#217C97" fill-opacity="0.7"/>
<path d="M1516 2271C1594.42 2271 1658 2207.42 1658 2129C1658 2050.58 1594.42 1987 1516 1987C1437.58 1987 1374 2050.58 1374 2129C1374 2207.42 1437.58 2271 1516 2271Z" fill="#217C97" fill-opacity="0.1"/>
<path d="M848.5 1987C998.445 1987 1120 1865.45 1120 1715.5C1120 1565.55 998.445 1444 848.5 1444C698.555 1444 577 1565.55 577 1715.5C577 1865.45 698.555 1987 848.5 1987Z" fill="#217C97" fill-opacity="0.03"/>
<path d="M1309 1047C1358.71 1047 1399 1006.71 1399 957C1399 907.294 1358.71 867 1309 867C1259.29 867 1219 907.294 1219 957C1219 1006.71 1259.29 1047 1309 1047Z" fill="#217C97" fill-opacity="0.05"/>
<path d="M1218.5 589C1352.98 589 1462 479.981 1462 345.5C1462 211.019 1352.98 102 1218.5 102C1084.02 102 975 211.019 975 345.5C975 479.981 1084.02 589 1218.5 589Z" fill="#62B269" fill-opacity="0.03"/>
<path d="M-122 1185C-26.4547 1185 51 1107.55 51 1012C51 916.455 -26.4547 839 -122 839C-217.545 839 -295 916.455 -295 1012C-295 1107.55 -217.545 1185 -122 1185Z" fill="#49556C" fill-opacity="0.4"/>
</g>
<defs>
<clipPath id="clip0_226_2">
<rect width="1920" height="3560" fill="white"/>
</clipPath>
</defs>
</svg>
