<svg width="1920" height="3560" viewBox="0 0 1920 3560" fill="none" xmlns="http://www.w3.org/2000/svg">
<g clip-path="url(#clip0_164_226)">
<circle cx="1920" cy="201" r="173" fill="#217C97" fill-opacity="0.7"/>
<path d="M1690.24 1015.36C1689.62 1009.14 1695.96 1004.59 1701.66 1007.16L1986.64 1135.87C1992.33 1138.45 1993.1 1146.22 1988.03 1149.86L1734.07 1332.3C1728.99 1335.94 1721.88 1332.73 1721.26 1326.52L1690.24 1015.36Z" fill="#217C97" fill-opacity="0.7"/>
<path d="M130.909 3229.24C136.432 3226.32 143.042 3230.48 142.807 3236.72L131.036 3549.2C130.801 3555.44 123.897 3559.08 118.609 3555.76L-146.12 3389.33C-151.408 3386 -151.114 3378.2 -145.591 3375.28L130.909 3229.24Z" fill="#F3D2F2" fill-opacity="0.7"/>
<circle cy="1177" r="173" fill="#217C97" fill-opacity="0.7"/>
<circle cx="-231" cy="2176" r="349" fill="#F3D2F2" fill-opacity="0.7"/>
<circle cx="1919.5" cy="3077.5" r="239.5" fill="#217C97" fill-opacity="0.7"/>
</g>
<defs>
<clipPath id="clip0_164_226">
<rect width="1920" height="3560" fill="white"/>
</clipPath>
</defs>
</svg>
