<svg xmlns="http://www.w3.org/2000/svg" xmlns:xlink="http://www.w3.org/1999/xlink" width="1080" zoomAndPan="magnify" viewBox="0 0 810 1439.999935" height="1920" preserveAspectRatio="xMidYMid meet" version="1.0"><path fill="#000000" d="M 405 561.039062 C 315.496094 561.039062 243 633.53125 243 723.039062 C 243 794.722656 289.371094 855.269531 353.765625 876.734375 C 361.867188 878.152344 364.90625 873.292969 364.90625 869.039062 C 364.90625 865.191406 364.703125 852.433594 364.703125 838.867188 C 324 846.359375 313.46875 828.945312 310.230469 819.832031 C 308.40625 815.175781 300.511719 800.796875 293.625 796.949219 C 287.953125 793.914062 279.855469 786.421875 293.421875 786.21875 C 306.179688 786.015625 315.292969 797.960938 318.328125 802.824219 C 332.910156 827.324219 356.199219 820.441406 365.511719 816.1875 C 366.929688 805.65625 371.183594 798.570312 375.839844 794.519531 C 339.796875 790.46875 302.128906 776.496094 302.128906 714.53125 C 302.128906 696.914062 308.40625 682.335938 318.734375 670.996094 C 317.113281 666.945312 311.445312 650.339844 320.355469 628.066406 C 320.355469 628.066406 333.921875 623.8125 364.90625 644.671875 C 377.863281 641.023438 391.636719 639.203125 405.40625 639.203125 C 419.175781 639.203125 432.945312 641.023438 445.90625 644.671875 C 476.886719 623.609375 490.453125 628.066406 490.453125 628.066406 C 499.363281 650.339844 493.695312 666.945312 492.074219 670.996094 C 502.402344 682.335938 508.679688 696.710938 508.679688 714.53125 C 508.679688 776.699219 470.8125 790.46875 434.765625 794.519531 C 440.640625 799.582031 445.703125 809.300781 445.703125 824.488281 C 445.703125 846.15625 445.5 863.574219 445.5 869.039062 C 445.5 873.292969 448.539062 878.355469 456.636719 876.734375 C 460.628906 875.386719 464.558594 873.886719 468.433594 872.234375 C 472.308594 870.582031 476.109375 868.777344 479.84375 866.828125 C 483.578125 864.878906 487.230469 862.789062 490.800781 860.554688 C 494.371094 858.320312 497.847656 855.953125 501.234375 853.449219 C 504.621094 850.945312 507.902344 848.3125 511.085938 845.550781 C 514.265625 842.792969 517.332031 839.914062 520.289062 836.914062 C 523.246094 833.914062 526.082031 830.808594 528.796875 827.585938 C 531.511719 824.367188 534.097656 821.046875 536.554688 817.628906 C 539.007812 814.207031 541.328125 810.699219 543.511719 807.097656 C 545.695312 803.496094 547.734375 799.816406 549.628906 796.054688 C 551.523438 792.296875 553.269531 788.46875 554.871094 784.574219 C 556.46875 780.679688 557.910156 776.726562 559.199219 772.71875 C 560.492188 768.710938 561.621094 764.660156 562.597656 760.5625 C 563.570312 756.46875 564.386719 752.339844 565.039062 748.183594 C 565.691406 744.023438 566.179688 739.84375 566.507812 735.648438 C 566.835938 731.449219 567 727.246094 567 723.039062 C 567 633.53125 494.503906 561.039062 405 561.039062 Z M 405 561.039062 " fill-opacity="1" fill-rule="nonzero"/></svg>