<?xml version="1.0" encoding="UTF-8"?>
<svg xmlns="http://www.w3.org/2000/svg" xmlns:xlink="http://www.w3.org/1999/xlink" viewBox="0 0 90 90" width="90px" height="90px">
<g id="surface167287570">
<path style=" stroke:none;fill-rule:nonzero;fill:rgb(100%,100%,100%);fill-opacity:1;" d="M 27 75 L 12 75 L 12 30 L 27 30 Z M 19.503906 24 C 15.355469 24 12 20.636719 12 16.496094 C 12 12.355469 15.359375 9 19.503906 9 C 23.636719 9 27 12.363281 27 16.496094 C 27 20.636719 23.636719 24 19.503906 24 Z M 81 75 L 66.578125 75 L 66.578125 53.101562 C 66.578125 47.878906 66.480469 41.160156 59.082031 41.160156 C 51.574219 41.160156 50.417969 46.847656 50.417969 52.722656 L 50.417969 75 L 36 75 L 36 29.96875 L 49.84375 29.96875 L 49.84375 36.121094 L 50.035156 36.121094 C 51.964844 32.578125 56.671875 28.847656 63.691406 28.847656 C 78.300781 28.847656 81 38.175781 81 50.300781 Z M 81 75 "/>
</g>
</svg>
