<?xml version="1.0" encoding="UTF-8" standalone="no"?>
<!-- Created with Inkscape (http://www.inkscape.org/) -->

<svg
   width="17in"
   height="9in"
   viewBox="0 0 431.8 228.6"
   version="1.1"
   id="svg5"
   sodipodi:docname="Logo como gráficos vetoriais escalonáveis.svg"
   inkscape:version="1.1 (c68e22c387, 2021-05-23)"
   xmlns:inkscape="http://www.inkscape.org/namespaces/inkscape"
   xmlns:sodipodi="http://sodipodi.sourceforge.net/DTD/sodipodi-0.dtd"
   xmlns="http://www.w3.org/2000/svg"
   xmlns:svg="http://www.w3.org/2000/svg">
  <sodipodi:namedview
     id="namedview6"
     pagecolor="#ffffff"
     bordercolor="#cccccc"
     borderopacity="1"
     inkscape:pageshadow="0"
     inkscape:pageopacity="0"
     inkscape:pagecheckerboard="true"
     inkscape:document-units="in"
     showgrid="false"
     inkscape:zoom="0.28935185"
     inkscape:cx="755.136"
     inkscape:cy="357.696"
     inkscape:window-width="1366"
     inkscape:window-height="745"
     inkscape:window-x="-8"
     inkscape:window-y="-8"
     inkscape:window-maximized="1"
     inkscape:current-layer="svg5" />
  <defs
     id="defs2" />
  <g
     id="layer1">
    <path
       style="fill:#22355e;stroke-width:1"
       d="m 43.310164,193.12214 c -11.4361,-2.34058 -20.91252,-9.66665 -25.78258,-19.93212 -2.70913,-5.7105 -3.31205,-8.60418 -3.29217,-15.8006 0.0144,-5.21017 0.0476,-5.54642 0.84123,-8.53087 1.69635,-6.37874 4.85575,-11.89474 9.44641,-16.4925 6.5401,-6.55022 14.61291,-10.07773 24.33322,-10.6327 2.73453,-0.15612 3.42572,-0.27405 3.46879,-0.59185 0.0296,-0.21828 0.13436,-1.28984 0.23283,-2.38125 0.5556,-6.1579 3.34339,-13.11117 7.45104,-18.58429 7.94523,-10.586415 21.43929,-16.707565 35.05831,-15.903075 l 2.79472,0.16509 0.98698,-2.97515 c 3.259246,-9.82473 10.384656,-18.79507 20.411066,-25.69601 5.98037,-4.11615 13.57967,-7.74625 20.90209,-9.98472 21.39171,-6.53945 44.61824,-5.40975 64.58957,3.14154 7.53395,3.22587 14.1492,7.49567 19.98745,12.90086 l 1.57434,1.45756 2.37492,-0.45695 c 8.70073,-1.67406 18.9904,-0.82769 27.49351,2.26146 6.2948,2.28689 12.85217,6.39764 16.7349,10.49096 1.40623,1.48251 1.52135,1.69742 1.52135,2.84029 0,1.57111 -0.65606,2.95987 -1.69863,3.59562 -1.68626,1.02829 -3.01632,0.52281 -6.06646,-2.30557 -3.3495,-3.10597 -7.38501,-5.53595 -12.39283,-7.46235 -7.75584,-2.98349 -15.46879,-3.60691 -25.615,-2.07038 -2.86052,0.4332 -4.26111,0.54312 -4.63021,0.3634 -0.29104,-0.14171 -1.12448,-0.82543 -1.85208,-1.51936 -1.86831,-1.78186 -8.31297,-6.74492 -10.96018,-8.44047 -8.7614,-5.61174 -19.58054,-9.31259 -32.2992,-11.04846 -4.76812,-0.65076 -16.25022,-0.64832 -21.29895,0.005 -23.74619,3.0706 -42.38163,14.22629 -50.00578,29.93486 -1.68916,3.48028 -2.33918,5.33319 -2.9238,8.33438 -0.78248,4.01694 -1.41221,4.41013 -6.382756,3.98536 -4.49143,-0.38383 -7.54957,-0.35299 -10.61213,0.107 -7.52218,1.12981 -13.60666,4.15466 -18.87912,9.385585 -3.62896,3.60038 -6.08188,7.49861 -7.62882,12.12389 -0.99493,2.97481 -1.3403,5.1357 -1.56257,9.7766 -0.15426,3.22081 -0.25899,3.86657 -0.72954,4.49791 -0.63714,0.85488 -1.01859,0.91528 -8.69632,1.37707 -4.71857,0.2838 -6.42874,0.5651 -9.55228,1.57124 -6.8712,2.21331 -13.52623,8.18967 -16.6511,14.95302 -5.22093,11.30002 -2.72439,24.31107 6.31176,32.89453 4.80477,4.56406 10.38902,7.07445 17.27699,7.76681 3.80743,0.38272 7.4289,-0.036 11.61046,-1.34223 3.45638,-1.07974 5.30856,-1.02598 6.52388,0.18933 1.69536,1.69537 1.14862,4.45791 -1.09992,5.55765 -1.31123,0.64133 -4.47784,1.67908 -7.14375,2.34114 -2.74505,0.68173 -11.10557,0.76034 -14.16964,0.13322 z m 35.60089,-24.75116 c -5.3043,-0.91224 -9.05606,-3.53869 -11.13124,-7.79252 -1.06091,-2.1747 -1.34732,-4.66435 -0.65768,-5.71687 0.53127,-0.81083 2.32291,-1.69183 3.45455,-1.6987 1.31684,-0.008 2.44458,0.86784 2.7863,2.16394 0.99899,3.78906 4.12169,6.16501 8.50961,6.47467 4.26932,0.30129 7.78634,-0.82217 9.25656,-2.95687 0.9964,-1.44672 1.04505,-3.68974 0.10988,-5.06597 -1.33456,-1.96398 -3.07902,-2.66915 -9.05494,-3.66032 -8.26721,-1.3712 -11.75738,-3.20321 -13.71361,-7.19835 -0.63004,-1.28671 -0.73832,-1.83817 -0.74756,-3.80707 -0.0157,-3.34501 0.70149,-5.13372 2.97029,-7.40818 1.85529,-1.85992 3.58868,-2.83729 6.42141,-3.62071 2.12487,-0.58765 9.12226,-0.64669 11.32143,-0.0955 3.52876,0.88439 6.84778,3.16232 8.33528,5.7207 0.78312,1.34692 1.41163,3.5456 1.21165,4.23871 -0.44648,1.54756 -1.87996,2.50403 -3.75656,2.50654 -1.47761,0.002 -2.39257,-0.6326 -3.18102,-2.2062 -1.21146,-2.41781 -3.21121,-3.70903 -6.43976,-4.15808 -3.7838,-0.52627 -8.00354,0.60443 -9.12646,2.44549 -1.11823,1.83337 -0.92397,3.69043 0.49025,4.68667 1.14159,0.80418 3.65281,1.56008 7.57183,2.27921 4.48376,0.82275 7.95785,1.78191 9.75783,2.69402 2.02071,1.02398 4.4468,3.59089 5.20327,5.50531 0.53369,1.35061 0.62894,2.06127 0.63831,4.7625 0.0104,3.0123 -0.0309,3.26313 -0.80665,4.89479 -1.05123,2.21107 -1.98158,3.29376 -3.89051,4.52756 -3.71142,2.39881 -10.09555,3.42029 -15.53246,2.48525 z m 91.418776,-0.12386 c -4.98762,-1.08879 -8.58445,-3.73081 -10.38525,-7.6284 -1.20565,-2.60947 -1.43512,-4.70259 -0.63824,-5.82171 0.59369,-0.83375 2.24837,-1.64092 3.36383,-1.64092 1.61488,0 2.51529,0.93348 3.29986,3.42109 0.53219,1.68741 2.6233,3.7377 4.61995,4.52976 1.36758,0.54252 2.02515,0.62813 4.7617,0.61993 4.38987,-0.0131 6.75724,-0.92347 8.09133,-3.11133 0.77092,-1.26427 0.69898,-3.7321 -0.145,-4.97412 -1.26313,-1.85886 -2.92529,-2.50826 -8.99582,-3.51458 -6.52859,-1.08226 -9.81338,-2.383 -11.99516,-4.74995 -2.09522,-2.27305 -2.86588,-4.89593 -2.37872,-8.0958 0.96569,-6.34308 7.1193,-10.06941 16.05,-9.71911 4.71847,0.18507 7.70701,1.11289 10.36846,3.21897 1.46883,1.16232 3.04887,3.52247 3.57899,5.34602 0.39329,1.35286 0.38863,1.49218 -0.0802,2.39549 -0.62706,1.20832 -1.95493,1.93363 -3.54005,1.93363 -1.50268,0 -2.41049,-0.64341 -3.10031,-2.19733 -0.55815,-1.25732 -2.32378,-2.96657 -3.62679,-3.51101 -1.71217,-0.71539 -4.52729,-0.98121 -6.82824,-0.64477 -2.36772,0.34621 -3.65575,0.89955 -4.72389,2.0294 -1.48062,1.56616 -1.59137,3.41547 -0.27812,4.64403 1.41331,1.32216 2.9231,1.81559 9.16559,2.99549 2.02333,0.38243 4.46411,0.93555 5.42396,1.22915 3.94839,1.20774 6.63198,3.30757 8.05519,6.30295 0.69501,1.46275 0.83255,2.09757 0.92026,4.24727 0.22679,5.55862 -1.79692,9.11386 -6.39597,11.23637 -3.87371,1.78777 -10.18908,2.41962 -14.5874,1.45948 z m 39.78759,0.15674 c -3.57981,-0.63922 -7.38375,-3.13752 -9.47978,-6.22599 -1.71777,-2.5311 -2.45389,-4.96194 -2.60291,-8.59535 -0.15,-3.6573 0.12951,-5.25287 1.40837,-8.03967 2.72084,-5.92902 8.14807,-9.10903 14.83835,-8.69432 8.22093,0.50959 14.11919,7.1118 14.11919,15.8043 0,7.98074 -4.80169,14.20554 -12.12199,15.71466 -2.24349,0.4625 -3.72576,0.47125 -6.16123,0.0364 z m 6.58276,-7.05808 c 2.64143,-1.31994 4.25595,-3.68633 4.86183,-7.12594 1.01338,-5.75308 -3.58817,-11.45892 -8.90924,-11.04727 -5.44257,0.42104 -9.24486,6.4569 -7.70583,12.23248 0.51807,1.9442 1.13064,2.97915 2.6808,4.52931 1.61579,1.61579 3.05891,2.17105 5.71553,2.19913 1.43682,0.0152 2.02759,-0.12344 3.35691,-0.78771 z m -106.39836,6.51532 c -0.54868,-0.15687 -1.28762,-0.56561 -1.6421,-0.9083 l -0.6445,-0.62309 v -18.31465 -18.31465 l 0.59531,-0.54222 c 0.95561,-0.87039 1.66745,-1.13763 3.02532,-1.13578 1.40201,0.002 2.60283,0.62258 3.16518,1.63597 0.26609,0.47952 0.34121,4.41358 0.34856,18.25496 0.006,10.59722 -0.0916,17.90924 -0.24339,18.30856 -0.51595,1.35705 -2.77648,2.16181 -4.60438,1.6392 z m 16.86811,-0.16171 c -0.59725,-0.29564 -1.22233,-0.83693 -1.38906,-1.20286 -0.2176,-0.47758 -0.30315,-5.38728 -0.30315,-17.39787 v -16.73253 l 0.59531,-1.17841 c 0.83578,-1.6544 1.91616,-2.29206 4.23987,-2.50249 1.05143,-0.0952 6.16604,-0.13486 11.36579,-0.0881 l 9.4541,0.085 0.84137,0.84171 c 0.68938,0.68964 0.86302,1.10261 0.96115,2.28588 0.11264,1.35835 0.0641,1.50488 -0.81603,2.46558 l -0.93578,1.02141 -9.41331,0.0758 -9.4133,0.0758 v 4.75285 4.75285 h 8.49312 8.49313 l 0.89958,0.89959 c 0.81263,0.81263 0.89958,1.04536 0.89958,2.40771 0,1.36234 -0.087,1.59508 -0.89958,2.4077 l -0.89958,0.89959 h -8.49313 -8.49312 v 7.3697 7.36969 l -0.62899,0.6787 c -0.57749,0.62311 -2.11087,1.2459 -3.07518,1.24897 -0.21828,8e-4 -0.88554,-0.24062 -1.48279,-0.53626 z m 136.43606,0.19363 c -0.50065,-0.15966 -1.4112,-0.77259 -2.02343,-1.36205 -1.86465,-1.79529 -1.96109,-2.44826 -1.96109,-13.27799 v -9.33206 l -1.64447,-0.0788 c -1.53846,-0.0737 -1.68343,-0.13672 -2.24895,-0.97779 -1.20089,-1.78602 -0.49574,-4.53346 1.25334,-4.88328 0.46978,-0.094 1.25598,-0.17083 1.74711,-0.17083 h 0.89297 v -3.02548 c 0,-1.66402 0.1161,-3.33084 0.25799,-3.70405 0.57246,-1.50568 3.30462,-2.23439 5.03076,-1.34177 1.41476,0.7316 1.59042,1.26428 1.59042,4.82288 v 3.24842 h 1.87824 c 2.48069,0 3.57154,0.50931 3.97498,1.85583 0.36729,1.22594 0.13565,2.62167 -0.58772,3.54129 -0.51089,0.64952 -0.6745,0.6883 -2.90345,0.6883 h -2.36205 v 8.35177 c 0,5.0188 0.10478,8.54755 0.26255,8.84235 0.42185,0.78824 1.85803,1.13539 3.2486,0.78524 0.97663,-0.24592 1.32726,-0.22662 1.97583,0.10877 1.62867,0.84223 1.79647,3.26243 0.31274,4.51091 -1.71646,1.44431 -6.25918,2.17492 -8.69437,1.39831 z m -23.43139,-0.17039 c -0.29104,-0.11912 -0.76729,-0.48116 -1.05834,-0.80452 -0.50923,-0.56579 -0.53196,-1.01571 -0.60349,-11.94619 l -0.0743,-11.35826 -1.70464,0.0469 c -1.93351,0.0532 -2.34385,-0.17248 -2.79408,-1.53668 -0.41467,-1.25647 -0.1595,-2.90083 0.57077,-3.67816 0.50824,-0.541 0.84576,-0.63546 2.27064,-0.63546 h 1.67368 l 0.005,-2.05052 c 0.01,-3.8475 1.2016,-6.32848 3.59939,-7.49148 2.2695,-1.10077 6.10069,-0.96567 8.60329,0.30339 1.63455,0.82887 1.93428,2.98106 0.59093,4.24308 -0.56485,0.53064 -0.87218,0.59078 -2.73656,0.5355 -1.82716,-0.0542 -2.17225,0.01 -2.65393,0.49139 -0.46435,0.46436 -0.54101,0.81844 -0.47522,2.19501 l 0.0785,1.64134 2.67289,0.13229 c 1.69614,0.0839 2.8315,0.26442 3.10695,0.49385 0.68374,0.5695 1.03278,2.24818 0.71377,3.43289 -0.44369,1.64775 -0.87029,1.86341 -3.85726,1.94998 l -2.63635,0.0764 -0.14211,11.50937 c -0.0782,6.33016 -0.16746,11.54089 -0.19844,11.57941 -0.031,0.0385 -0.44327,0.30597 -0.91622,0.59433 -0.89901,0.54813 -3.01631,0.69304 -4.03489,0.27614 z m 153.72292,-12.53884 c -0.58209,-0.19319 -1.41928,-0.53947 -1.86042,-0.76951 -0.87667,-0.45713 -3.29896,-2.92333 -3.29896,-3.35875 0,-0.18295 -8.97191,-0.29421 -27.58281,-0.34206 l -27.58281,-0.0709 -1.72826,-0.81716 c -1.52154,-0.7194 -3.54166,-1.93377 -8.32591,-5.00501 -0.72761,-0.46708 -2.63261,-1.65999 -4.23334,-2.65091 -1.60072,-0.99092 -3.50414,-2.19853 -4.22981,-2.68357 l -1.31937,-0.8819 -8.07334,0.0197 -8.07331,0.0197 -1.0722,1.3679 c -0.71964,0.91814 -1.58395,1.62938 -2.62866,2.16314 -1.37181,0.70086 -1.82541,0.79522 -3.82262,0.79522 -1.94442,0 -2.47949,-0.10479 -3.76936,-0.73821 -5.18422,-2.54583 -6.21125,-9.86336 -1.91511,-13.64498 1.94546,-1.71247 2.81059,-2.02098 5.66733,-2.02098 2.11846,0 2.70068,0.0972 3.70416,0.61841 1.38359,0.71863 2.72119,1.9306 3.47861,3.15191 l 0.5333,0.85989 8.64354,0.003 8.64351,0.003 1.45521,0.74043 c 0.80036,0.40724 5.28476,3.14417 9.96535,6.08207 l 8.51013,5.34161 h 26.73628 26.73628 l 0.29573,-0.55257 c 0.66635,-1.24507 2.33045,-2.7496 3.82394,-3.45728 1.27868,-0.6059 1.95149,-0.75227 3.45861,-0.75244 2.49237,-2.6e-4 4.07043,0.58011 5.74931,2.11452 1.86881,1.70798 2.65618,3.32989 2.7849,5.73662 0.12478,2.3327 -0.36256,3.93977 -1.75117,5.7747 -1.89344,2.50198 -6.09121,3.89222 -8.91873,2.95374 z M 163.26307,117.06185 c -2.40783,-0.6894 -4.5128,-2.50207 -5.55532,-4.78389 -0.83355,-1.82446 -0.85078,-5.01943 -0.0366,-6.79334 1.71521,-3.73719 5.91584,-5.834055 9.70837,-4.84623 0.83416,0.21726 1.8418,0.56317 2.2392,0.76868 0.81843,0.42323 3.21945,2.89845 3.21945,3.31894 0,0.19076 20.25176,0.27592 65.61738,0.27592 h 65.61738 l 6.91568,-5.490095 c 11.51012,-9.13747 12.49958,-9.91136 13.32352,-10.42107 0.76348,-0.47229 2.23425,-0.49106 38.56302,-0.49201 34.09529,-7.9e-4 37.76927,-0.0413 37.76927,-0.41512 0,-0.6677 2.77188,-3.24738 4.15346,-3.86544 1.78681,-0.79936 5.01785,-0.81169 6.73936,-0.0257 5.52643,2.52319 6.87255,9.55868 2.6389,13.79232 -1.60671,1.60671 -3.00294,2.221845 -5.36313,2.362865 -3.2389,0.19352 -5.83944,-0.976725 -7.50208,-3.375935 l -0.73848,-1.06562 h -36.69874 -36.69874 l -9.92402,7.906655 c -5.45819,4.34867 -10.1724,8.03959 -10.47599,8.20208 -0.40222,0.21525 -18.61129,0.29541 -67.10531,0.29541 h -66.55334 l -0.40409,0.78142 c -1.55205,3.00133 -6.04971,4.84348 -9.44915,3.87018 z m 31.80007,-19.456165 c -2.56728,-0.53131 -4.84294,-2.32965 -5.994,-4.73679 -0.59,-1.23381 -0.71458,-1.86046 -0.71762,-3.60967 -0.003,-1.78742 0.1099,-2.34302 0.72648,-3.57187 0.99002,-1.97313 2.11153,-3.09462 4.00076,-4.00071 2.155,-1.03355 4.95979,-1.07741 7.14342,-0.11171 1.47675,0.65309 3.67034,2.64198 3.97597,3.60496 0.15792,0.49755 1.0217,0.50743 44.26251,0.50627 l 44.10144,-0.001 1.5875,-1.41478 c 8.24949,-7.35198 19.72916,-17.22202 20.72354,-17.81781 l 1.23687,-0.74096 23.08239,-0.0718 23.08241,-0.0718 0.52162,-1.0225 c 0.69776,-1.3677 2.45235,-3.05023 3.95076,-3.78851 0.99785,-0.49165 1.65664,-0.60123 3.60241,-0.59924 2.06923,0.002 2.55833,0.0955 3.73263,0.71297 2.87994,1.51422 4.73457,4.56145 4.67937,7.68846 -0.0412,2.33496 -0.77576,4.063 -2.45888,5.78457 -3.39915,3.47679 -8.31839,3.49975 -11.92913,0.0557 l -1.48016,-1.41183 h -22.37745 -22.37743 l -11.00669,9.63393 c -8.71083,7.62439 -11.26398,9.72158 -12.24005,10.05416 -1.1076,0.37741 -5.7821,0.42025 -45.84987,0.42025 h -44.61652 l -0.8167,1.15866 c -1.86903,2.65161 -5.3432,4.01408 -8.54558,3.35134 z"
       id="path2205" />
  </g>
</svg>
