<svg width="150" height="150" viewBox="0 0 150 150" fill="none" xmlns="http://www.w3.org/2000/svg">
<path d="M108.008 116.23C108.008 120.195 104.746 123.437 100.742 123.437H49.9414C45.9375 123.437 42.6758 120.195 42.6758 116.23V50.3516H55.7227C63.7305 50.3516 70.2344 43.9062 70.2344 35.9766V21.7383H100.742C104.746 21.7383 108.008 24.9609 108.008 28.9258V116.23ZM62.9687 27.0898V35.9766C62.9687 39.9414 59.7266 43.1641 55.7227 43.1641H47.4609L62.9687 27.0898ZM100.742 14.5508H65.0391L35.4297 45.2148V116.23C35.4297 124.16 41.9336 130.625 49.9414 130.625H100.742C108.75 130.625 115.254 124.16 115.254 116.23V28.9258C115.254 20.9961 108.75 14.5508 100.742 14.5508Z" fill="#2C6693"/>
<path d="M96.1719 55.8594H57.207C55.1953 55.8594 53.5742 57.4805 53.5742 59.4727C53.5742 61.4453 55.1953 63.0664 57.207 63.0664H96.1719C98.1836 63.0664 99.8047 61.4453 99.8047 59.4727C99.8047 57.4805 98.1836 55.8594 96.1719 55.8594Z" fill="#2C6693"/>
<path d="M95.6445 70.2539H56.6797C54.668 70.2539 53.0469 71.8555 53.0469 73.8477C53.0469 75.8398 54.668 77.4414 56.6797 77.4414H95.6445C97.6562 77.4414 99.2773 75.8398 99.2773 73.8477C99.2773 71.8555 97.6562 70.2539 95.6445 70.2539Z" fill="#2C6693"/>
<path d="M95.1367 84.6289H56.1523C54.1406 84.6289 52.5195 86.25 52.5195 88.2227C52.5195 90.2148 54.1406 91.8164 56.1523 91.8164H95.1367C97.1289 91.8164 98.75 90.2148 98.75 88.2227C98.75 86.25 97.1289 84.6289 95.1367 84.6289Z" fill="#2C6693"/>
<path d="M94.6094 99.0234H55.625C53.6328 99.0234 51.9922 100.625 51.9922 102.617C51.9922 104.59 53.6328 106.211 55.625 106.211H94.6094C96.6016 106.211 98.2422 104.59 98.2422 102.617C98.2422 100.625 96.6016 99.0234 94.6094 99.0234Z" fill="#2C6693"/>
</svg>
