<svg width="794" height="128" viewBox="0 0 794 128" fill="none" xmlns="http://www.w3.org/2000/svg">
<rect width="794" height="128" rx="10" fill="#62B269"/>
<path d="M173.636 74.4082V81H154.69V74.4082H173.636ZM157.742 45.4531V81H149.173V45.4531H157.742ZM171.194 59.5645V65.9365H154.69V59.5645H171.194ZM173.709 45.4531V52.0693H154.69V45.4531H173.709ZM184.842 60.2236V81H176.614V54.584H184.329L184.842 60.2236ZM183.865 66.8887L181.937 66.9375C181.937 64.9193 182.181 63.1208 182.669 61.542C183.157 59.9469 183.849 58.596 184.744 57.4893C185.639 56.3825 186.705 55.5443 187.942 54.9746C189.196 54.3887 190.587 54.0957 192.117 54.0957C193.338 54.0957 194.453 54.2747 195.462 54.6328C196.487 54.9909 197.366 55.5687 198.099 56.3662C198.847 57.1637 199.417 58.2217 199.808 59.54C200.215 60.8421 200.418 62.4535 200.418 64.374V81H192.142V64.3496C192.142 63.2917 191.995 62.486 191.702 61.9326C191.409 61.363 190.986 60.9723 190.433 60.7607C189.879 60.5492 189.204 60.4434 188.406 60.4434C187.56 60.4434 186.844 60.6061 186.258 60.9316C185.672 61.2572 185.2 61.7129 184.842 62.2988C184.5 62.8685 184.248 63.5439 184.085 64.3252C183.938 65.1064 183.865 65.9609 183.865 66.8887ZM214.505 75.3604L219.705 54.584H228.372L219.729 81H214.603L214.505 75.3604ZM211.429 54.584L216.556 75.3604L216.507 81H211.355L202.737 54.584H211.429ZM239.505 54.584V81H231.253V54.584H239.505ZM230.765 47.7725C230.765 46.6006 231.188 45.6403 232.034 44.8916C232.881 44.1429 233.979 43.7686 235.33 43.7686C236.681 43.7686 237.78 44.1429 238.626 44.8916C239.472 45.6403 239.896 46.6006 239.896 47.7725C239.896 48.9443 239.472 49.9046 238.626 50.6533C237.78 51.402 236.681 51.7764 235.33 51.7764C233.979 51.7764 232.881 51.402 232.034 50.6533C231.188 49.9046 230.765 48.9443 230.765 47.7725ZM258.304 74.3594V63.4707C258.304 62.722 258.198 62.0791 257.986 61.542C257.775 61.0049 257.441 60.5898 256.985 60.2969C256.53 59.9876 255.919 59.833 255.154 59.833C254.536 59.833 254.007 59.9388 253.567 60.1504C253.128 60.362 252.794 60.6794 252.566 61.1025C252.339 61.5257 252.225 62.0628 252.225 62.7139H243.997C243.997 61.4932 244.266 60.362 244.803 59.3203C245.356 58.2624 246.137 57.3428 247.146 56.5615C248.172 55.7803 249.393 55.1781 250.809 54.7549C252.241 54.3154 253.836 54.0957 255.594 54.0957C257.693 54.0957 259.565 54.4456 261.209 55.1455C262.869 55.8454 264.179 56.8952 265.14 58.2949C266.1 59.6784 266.58 61.4199 266.58 63.5195V74.335C266.58 76.0602 266.678 77.3704 266.873 78.2656C267.068 79.1445 267.345 79.9176 267.703 80.585V81H259.451C259.061 80.1862 258.768 79.1934 258.572 78.0215C258.393 76.8333 258.304 75.6126 258.304 74.3594ZM259.305 64.8623L259.354 69.2568H255.716C254.951 69.2568 254.3 69.3626 253.763 69.5742C253.242 69.7858 252.819 70.0788 252.493 70.4531C252.184 70.8112 251.956 71.2181 251.81 71.6738C251.679 72.1296 251.614 72.6097 251.614 73.1143C251.614 73.6025 251.728 74.042 251.956 74.4326C252.2 74.807 252.526 75.0999 252.933 75.3115C253.34 75.5231 253.795 75.6289 254.3 75.6289C255.211 75.6289 255.984 75.458 256.619 75.1162C257.27 74.7581 257.767 74.3268 258.108 73.8223C258.45 73.3177 258.621 72.8457 258.621 72.4062L260.428 75.7754C260.102 76.4264 259.728 77.0856 259.305 77.7529C258.898 78.4202 258.385 79.0387 257.767 79.6084C257.164 80.1618 256.424 80.6175 255.545 80.9756C254.666 81.3174 253.6 81.4883 252.347 81.4883C250.719 81.4883 249.222 81.1546 247.854 80.4873C246.504 79.82 245.421 78.8923 244.607 77.7041C243.794 76.4997 243.387 75.1162 243.387 73.5537C243.387 72.1865 243.631 70.9658 244.119 69.8916C244.624 68.8174 245.381 67.9059 246.39 67.1572C247.399 66.4085 248.685 65.8389 250.247 65.4482C251.81 65.0576 253.649 64.8623 255.765 64.8623H259.305ZM286.331 74.9453V43.5H294.607V81H287.186L286.331 74.9453ZM270.12 68.1094V67.5967C270.12 65.5947 270.34 63.7718 270.779 62.1279C271.219 60.4678 271.87 59.0436 272.732 57.8555C273.595 56.651 274.669 55.7233 275.955 55.0723C277.241 54.4212 278.722 54.0957 280.398 54.0957C281.896 54.0957 283.206 54.4456 284.329 55.1455C285.452 55.8291 286.412 56.7894 287.21 58.0264C288.007 59.2633 288.659 60.7119 289.163 62.3721C289.668 64.016 290.05 65.79 290.311 67.6943V68.3047C290.05 70.0951 289.668 71.7878 289.163 73.3828C288.659 74.9616 288.007 76.3613 287.21 77.582C286.412 78.8027 285.444 79.763 284.305 80.4629C283.182 81.1465 281.863 81.4883 280.35 81.4883C278.673 81.4883 277.192 81.1546 275.906 80.4873C274.637 79.82 273.571 78.8841 272.708 77.6797C271.862 76.4753 271.219 75.0592 270.779 73.4316C270.34 71.804 270.12 70.0299 270.12 68.1094ZM278.348 67.5967V68.1094C278.348 69.1022 278.413 70.0218 278.543 70.8682C278.673 71.7145 278.893 72.4632 279.202 73.1143C279.528 73.749 279.951 74.2454 280.472 74.6035C281.009 74.9616 281.668 75.1406 282.449 75.1406C283.507 75.1406 284.378 74.8883 285.062 74.3838C285.761 73.8792 286.274 73.1631 286.6 72.2354C286.941 71.3076 287.088 70.2171 287.039 68.9639V67.0352C287.072 65.9609 286.998 65.0169 286.819 64.2031C286.64 63.373 286.355 62.6813 285.965 62.1279C285.59 61.5745 285.11 61.1595 284.524 60.8828C283.955 60.5898 283.279 60.4434 282.498 60.4434C281.733 60.4434 281.082 60.6224 280.545 60.9805C280.024 61.3385 279.601 61.8431 279.275 62.4941C278.95 63.1289 278.714 63.8857 278.567 64.7646C278.421 65.6273 278.348 66.5713 278.348 67.5967ZM298.245 68.0605V67.5479C298.245 65.611 298.522 63.8288 299.075 62.2012C299.629 60.5573 300.442 59.1331 301.517 57.9287C302.591 56.7243 303.917 55.7884 305.496 55.1211C307.075 54.4375 308.898 54.0957 310.965 54.0957C313.048 54.0957 314.879 54.4375 316.458 55.1211C318.053 55.7884 319.388 56.7243 320.462 57.9287C321.536 59.1331 322.35 60.5573 322.903 62.2012C323.457 63.8288 323.733 65.611 323.733 67.5479V68.0605C323.733 69.9811 323.457 71.7633 322.903 73.4072C322.35 75.0348 321.536 76.459 320.462 77.6797C319.388 78.8841 318.061 79.82 316.482 80.4873C314.904 81.1546 313.081 81.4883 311.014 81.4883C308.947 81.4883 307.116 81.1546 305.521 80.4873C303.925 79.82 302.591 78.8841 301.517 77.6797C300.442 76.459 299.629 75.0348 299.075 73.4072C298.522 71.7633 298.245 69.9811 298.245 68.0605ZM306.473 67.5479V68.0605C306.473 69.0534 306.546 69.9811 306.692 70.8438C306.839 71.7064 307.083 72.4632 307.425 73.1143C307.767 73.749 308.23 74.2454 308.816 74.6035C309.402 74.9616 310.135 75.1406 311.014 75.1406C311.876 75.1406 312.592 74.9616 313.162 74.6035C313.748 74.2454 314.212 73.749 314.554 73.1143C314.896 72.4632 315.14 71.7064 315.286 70.8438C315.433 69.9811 315.506 69.0534 315.506 68.0605V67.5479C315.506 66.5876 315.433 65.6842 315.286 64.8379C315.14 63.9753 314.896 63.2184 314.554 62.5674C314.212 61.9001 313.748 61.3792 313.162 61.0049C312.576 60.6305 311.844 60.4434 310.965 60.4434C310.102 60.4434 309.378 60.6305 308.792 61.0049C308.222 61.3792 307.767 61.9001 307.425 62.5674C307.083 63.2184 306.839 63.9753 306.692 64.8379C306.546 65.6842 306.473 66.5876 306.473 67.5479ZM351.004 75.1406C351.769 75.1406 352.42 75.0023 352.957 74.7256C353.51 74.4326 353.925 74.0257 354.202 73.5049C354.495 72.9678 354.633 72.3249 354.617 71.5762H362.356C362.373 73.5618 361.884 75.3034 360.892 76.8008C359.915 78.2819 358.58 79.4375 356.888 80.2676C355.211 81.0814 353.315 81.4883 351.199 81.4883C349.132 81.4883 347.326 81.1546 345.779 80.4873C344.233 79.8037 342.939 78.8597 341.897 77.6553C340.872 76.4346 340.099 75.0104 339.578 73.3828C339.074 71.7552 338.821 69.9893 338.821 68.085V67.5234C338.821 65.6191 339.074 63.8532 339.578 62.2256C340.099 60.5817 340.872 59.1576 341.897 57.9531C342.939 56.7324 344.225 55.7884 345.755 55.1211C347.301 54.4375 349.1 54.0957 351.15 54.0957C353.348 54.0957 355.285 54.5107 356.961 55.3408C358.654 56.1709 359.98 57.3753 360.94 58.9541C361.901 60.5329 362.373 62.4453 362.356 64.6914H354.617C354.633 63.8939 354.511 63.1777 354.251 62.543C353.991 61.9082 353.584 61.4036 353.03 61.0293C352.493 60.6387 351.801 60.4434 350.955 60.4434C350.109 60.4434 349.425 60.6305 348.904 61.0049C348.383 61.3792 347.985 61.9001 347.708 62.5674C347.448 63.2184 347.269 63.9671 347.171 64.8135C347.09 65.6598 347.049 66.5632 347.049 67.5234V68.085C347.049 69.0615 347.09 69.9811 347.171 70.8438C347.269 71.6901 347.456 72.4388 347.732 73.0898C348.009 73.7246 348.408 74.2292 348.929 74.6035C349.45 74.9616 350.141 75.1406 351.004 75.1406ZM364.847 68.0605V67.5479C364.847 65.611 365.123 63.8288 365.677 62.2012C366.23 60.5573 367.044 59.1331 368.118 57.9287C369.192 56.7243 370.519 55.7884 372.098 55.1211C373.676 54.4375 375.499 54.0957 377.566 54.0957C379.65 54.0957 381.481 54.4375 383.06 55.1211C384.655 55.7884 385.989 56.7243 387.063 57.9287C388.138 59.1331 388.951 60.5573 389.505 62.2012C390.058 63.8288 390.335 65.611 390.335 67.5479V68.0605C390.335 69.9811 390.058 71.7633 389.505 73.4072C388.951 75.0348 388.138 76.459 387.063 77.6797C385.989 78.8841 384.663 79.82 383.084 80.4873C381.505 81.1546 379.682 81.4883 377.615 81.4883C375.548 81.4883 373.717 81.1546 372.122 80.4873C370.527 79.82 369.192 78.8841 368.118 77.6797C367.044 76.459 366.23 75.0348 365.677 73.4072C365.123 71.7633 364.847 69.9811 364.847 68.0605ZM373.074 67.5479V68.0605C373.074 69.0534 373.147 69.9811 373.294 70.8438C373.44 71.7064 373.685 72.4632 374.026 73.1143C374.368 73.749 374.832 74.2454 375.418 74.6035C376.004 74.9616 376.736 75.1406 377.615 75.1406C378.478 75.1406 379.194 74.9616 379.764 74.6035C380.35 74.2454 380.813 73.749 381.155 73.1143C381.497 72.4632 381.741 71.7064 381.888 70.8438C382.034 69.9811 382.107 69.0534 382.107 68.0605V67.5479C382.107 66.5876 382.034 65.6842 381.888 64.8379C381.741 63.9753 381.497 63.2184 381.155 62.5674C380.813 61.9001 380.35 61.3792 379.764 61.0049C379.178 60.6305 378.445 60.4434 377.566 60.4434C376.704 60.4434 375.979 60.6305 375.394 61.0049C374.824 61.3792 374.368 61.9001 374.026 62.5674C373.685 63.2184 373.44 63.9753 373.294 64.8379C373.147 65.6842 373.074 66.5876 373.074 67.5479ZM402.298 60.1748V81H394.07V54.584H401.785L402.298 60.1748ZM401.297 66.8887L399.417 66.9375C399.417 65.082 399.637 63.373 400.076 61.8105C400.516 60.248 401.167 58.889 402.029 57.7334C402.892 56.5778 403.95 55.6826 405.203 55.0479C406.473 54.4131 407.938 54.0957 409.598 54.0957C410.753 54.0957 411.803 54.2747 412.747 54.6328C413.691 54.9746 414.505 55.5199 415.188 56.2686C415.872 57.001 416.393 57.9613 416.751 59.1494C417.125 60.3213 417.312 61.7292 417.312 63.373V81H409.085V64.4229C409.085 63.2998 408.955 62.4535 408.694 61.8838C408.45 61.3141 408.092 60.9316 407.62 60.7363C407.148 60.541 406.57 60.4434 405.887 60.4434C405.171 60.4434 404.528 60.6061 403.958 60.9316C403.388 61.2572 402.9 61.7129 402.493 62.2988C402.103 62.8685 401.801 63.5439 401.59 64.3252C401.395 65.1064 401.297 65.9609 401.297 66.8887ZM416.385 66.8887L414.09 66.9375C414.09 65.082 414.293 63.373 414.7 61.8105C415.123 60.248 415.75 58.889 416.58 57.7334C417.426 56.5778 418.476 55.6826 419.729 55.0479C420.983 54.4131 422.439 54.0957 424.1 54.0957C425.304 54.0957 426.411 54.2747 427.42 54.6328C428.429 54.9909 429.3 55.5687 430.032 56.3662C430.765 57.1637 431.334 58.2217 431.741 59.54C432.148 60.8421 432.352 62.4535 432.352 64.374V81H424.1V64.374C424.1 63.2835 423.969 62.4616 423.709 61.9082C423.465 61.3385 423.107 60.9561 422.635 60.7607C422.163 60.5492 421.601 60.4434 420.95 60.4434C420.169 60.4434 419.493 60.6061 418.924 60.9316C418.354 61.2572 417.874 61.7129 417.483 62.2988C417.109 62.8685 416.832 63.5439 416.653 64.3252C416.474 65.1064 416.385 65.9609 416.385 66.8887ZM463.357 73.5781C463.357 73.1224 463.203 72.7318 462.894 72.4062C462.601 72.0645 462.08 71.7552 461.331 71.4785C460.582 71.1855 459.533 70.8926 458.182 70.5996C456.896 70.3229 455.683 69.9567 454.544 69.501C453.421 69.0452 452.436 68.4919 451.59 67.8408C450.743 67.1898 450.076 66.4167 449.588 65.5215C449.116 64.6263 448.88 63.6009 448.88 62.4453C448.88 61.3223 449.116 60.2643 449.588 59.2715C450.076 58.2624 450.784 57.3753 451.712 56.6104C452.656 55.8291 453.803 55.2188 455.154 54.7793C456.505 54.3236 458.043 54.0957 459.769 54.0957C462.145 54.0957 464.196 54.4619 465.921 55.1943C467.646 55.9105 468.973 56.9196 469.9 58.2217C470.844 59.5075 471.316 60.9967 471.316 62.6895H463.089C463.089 62.0221 462.975 61.4525 462.747 60.9805C462.535 60.5085 462.186 60.1504 461.697 59.9062C461.209 59.6458 460.558 59.5156 459.744 59.5156C459.174 59.5156 458.654 59.6214 458.182 59.833C457.726 60.0446 457.36 60.3376 457.083 60.7119C456.806 61.0863 456.668 61.5257 456.668 62.0303C456.668 62.3883 456.749 62.7139 456.912 63.0068C457.091 63.2835 457.36 63.5439 457.718 63.7881C458.076 64.016 458.532 64.2275 459.085 64.4229C459.638 64.6019 460.306 64.7646 461.087 64.9111C462.861 65.2367 464.521 65.7005 466.067 66.3027C467.614 66.9049 468.867 67.7594 469.827 68.8662C470.804 69.973 471.292 71.4622 471.292 73.334C471.292 74.5059 471.023 75.5882 470.486 76.5811C469.949 77.5576 469.176 78.4202 468.167 79.1689C467.158 79.9014 465.945 80.471 464.529 80.8779C463.113 81.2848 461.518 81.4883 459.744 81.4883C457.221 81.4883 455.089 81.0407 453.348 80.1455C451.606 79.234 450.288 78.0947 449.393 76.7275C448.514 75.3441 448.074 73.9443 448.074 72.5283H455.74C455.773 73.3421 455.968 74.0094 456.326 74.5303C456.701 75.0511 457.197 75.4336 457.815 75.6777C458.434 75.9219 459.15 76.0439 459.964 76.0439C460.713 76.0439 461.331 75.9382 461.819 75.7266C462.324 75.515 462.706 75.2301 462.967 74.8721C463.227 74.4977 463.357 74.0664 463.357 73.5781ZM490.579 74.5791V54.584H498.831V81H491.116L490.579 74.5791ZM491.36 69.208L493.509 69.1592C493.509 70.9333 493.297 72.5771 492.874 74.0908C492.451 75.5882 491.824 76.8903 490.994 77.9971C490.18 79.1038 489.171 79.9665 487.967 80.585C486.779 81.1872 485.403 81.4883 483.841 81.4883C482.539 81.4883 481.342 81.3092 480.252 80.9512C479.178 80.5768 478.25 79.999 477.469 79.2178C476.688 78.4202 476.077 77.403 475.638 76.166C475.215 74.9128 475.003 73.4154 475.003 71.6738V54.584H483.23V71.7227C483.23 72.3086 483.304 72.8132 483.45 73.2363C483.597 73.6595 483.808 74.0176 484.085 74.3105C484.362 74.5872 484.703 74.7988 485.11 74.9453C485.534 75.0755 486.014 75.1406 486.551 75.1406C487.788 75.1406 488.756 74.8802 489.456 74.3594C490.156 73.8385 490.644 73.1305 490.921 72.2354C491.214 71.3402 491.36 70.3311 491.36 69.208ZM514.529 75.1406C515.294 75.1406 515.945 75.0023 516.482 74.7256C517.036 74.4326 517.451 74.0257 517.728 73.5049C518.021 72.9678 518.159 72.3249 518.143 71.5762H525.882C525.898 73.5618 525.41 75.3034 524.417 76.8008C523.44 78.2819 522.106 79.4375 520.413 80.2676C518.737 81.0814 516.84 81.4883 514.725 81.4883C512.658 81.4883 510.851 81.1546 509.305 80.4873C507.758 79.8037 506.465 78.8597 505.423 77.6553C504.397 76.4346 503.624 75.0104 503.104 73.3828C502.599 71.7552 502.347 69.9893 502.347 68.085V67.5234C502.347 65.6191 502.599 63.8532 503.104 62.2256C503.624 60.5817 504.397 59.1576 505.423 57.9531C506.465 56.7324 507.75 55.7884 509.28 55.1211C510.826 54.4375 512.625 54.0957 514.676 54.0957C516.873 54.0957 518.81 54.5107 520.486 55.3408C522.179 56.1709 523.506 57.3753 524.466 58.9541C525.426 60.5329 525.898 62.4453 525.882 64.6914H518.143C518.159 63.8939 518.037 63.1777 517.776 62.543C517.516 61.9082 517.109 61.4036 516.556 61.0293C516.019 60.6387 515.327 60.4434 514.48 60.4434C513.634 60.4434 512.951 60.6305 512.43 61.0049C511.909 61.3792 511.51 61.9001 511.233 62.5674C510.973 63.2184 510.794 63.9671 510.696 64.8135C510.615 65.6598 510.574 66.5632 510.574 67.5234V68.085C510.574 69.0615 510.615 69.9811 510.696 70.8438C510.794 71.6901 510.981 72.4388 511.258 73.0898C511.535 73.7246 511.933 74.2292 512.454 74.6035C512.975 74.9616 513.667 75.1406 514.529 75.1406ZM542.19 81.4883C540.042 81.4883 538.121 81.1546 536.429 80.4873C534.736 79.8037 533.304 78.8678 532.132 77.6797C530.976 76.4915 530.089 75.1243 529.471 73.5781C528.868 72.0319 528.567 70.3962 528.567 68.6709V67.7432C528.567 65.8063 528.836 64.016 529.373 62.3721C529.91 60.7119 530.708 59.2633 531.766 58.0264C532.824 56.7894 534.15 55.8291 535.745 55.1455C537.34 54.4456 539.196 54.0957 541.312 54.0957C543.183 54.0957 544.86 54.3968 546.341 54.999C547.822 55.6012 549.075 56.4639 550.101 57.5869C551.142 58.71 551.932 60.069 552.469 61.6641C553.022 63.2591 553.299 65.0495 553.299 67.0352V70.3799H531.717V65.2285H545.267V64.5938C545.283 63.7148 545.128 62.9661 544.803 62.3477C544.493 61.7292 544.038 61.2572 543.436 60.9316C542.833 60.6061 542.101 60.4434 541.238 60.4434C540.343 60.4434 539.603 60.6387 539.017 61.0293C538.447 61.4199 537.999 61.957 537.674 62.6406C537.365 63.3079 537.145 64.0811 537.015 64.96C536.884 65.8389 536.819 66.7666 536.819 67.7432V68.6709C536.819 69.6475 536.95 70.5345 537.21 71.332C537.487 72.1296 537.877 72.8132 538.382 73.3828C538.903 73.9362 539.521 74.3675 540.237 74.6768C540.97 74.986 541.8 75.1406 542.728 75.1406C543.851 75.1406 544.957 74.929 546.048 74.5059C547.138 74.0827 548.074 73.3828 548.855 72.4062L552.591 76.8496C552.054 77.6146 551.289 78.3551 550.296 79.0713C549.319 79.7874 548.147 80.3734 546.78 80.8291C545.413 81.2686 543.883 81.4883 542.19 81.4883ZM570.486 73.5781C570.486 73.1224 570.332 72.7318 570.022 72.4062C569.729 72.0645 569.209 71.7552 568.46 71.4785C567.711 71.1855 566.661 70.8926 565.311 70.5996C564.025 70.3229 562.812 69.9567 561.673 69.501C560.55 69.0452 559.565 68.4919 558.719 67.8408C557.872 67.1898 557.205 66.4167 556.717 65.5215C556.245 64.6263 556.009 63.6009 556.009 62.4453C556.009 61.3223 556.245 60.2643 556.717 59.2715C557.205 58.2624 557.913 57.3753 558.841 56.6104C559.785 55.8291 560.932 55.2188 562.283 54.7793C563.634 54.3236 565.172 54.0957 566.897 54.0957C569.274 54.0957 571.325 54.4619 573.05 55.1943C574.775 55.9105 576.102 56.9196 577.029 58.2217C577.973 59.5075 578.445 60.9967 578.445 62.6895H570.218C570.218 62.0221 570.104 61.4525 569.876 60.9805C569.664 60.5085 569.314 60.1504 568.826 59.9062C568.338 59.6458 567.687 59.5156 566.873 59.5156C566.303 59.5156 565.783 59.6214 565.311 59.833C564.855 60.0446 564.489 60.3376 564.212 60.7119C563.935 61.0863 563.797 61.5257 563.797 62.0303C563.797 62.3883 563.878 62.7139 564.041 63.0068C564.22 63.2835 564.489 63.5439 564.847 63.7881C565.205 64.016 565.66 64.2275 566.214 64.4229C566.767 64.6019 567.435 64.7646 568.216 64.9111C569.99 65.2367 571.65 65.7005 573.196 66.3027C574.743 66.9049 575.996 67.7594 576.956 68.8662C577.933 69.973 578.421 71.4622 578.421 73.334C578.421 74.5059 578.152 75.5882 577.615 76.5811C577.078 77.5576 576.305 78.4202 575.296 79.1689C574.287 79.9014 573.074 80.471 571.658 80.8779C570.242 81.2848 568.647 81.4883 566.873 81.4883C564.35 81.4883 562.218 81.0407 560.477 80.1455C558.735 79.234 557.417 78.0947 556.521 76.7275C555.643 75.3441 555.203 73.9443 555.203 72.5283H562.869C562.902 73.3421 563.097 74.0094 563.455 74.5303C563.829 75.0511 564.326 75.4336 564.944 75.6777C565.563 75.9219 566.279 76.0439 567.093 76.0439C567.841 76.0439 568.46 75.9382 568.948 75.7266C569.453 75.515 569.835 75.2301 570.096 74.8721C570.356 74.4977 570.486 74.0664 570.486 73.5781ZM596.121 73.5781C596.121 73.1224 595.966 72.7318 595.657 72.4062C595.364 72.0645 594.843 71.7552 594.095 71.4785C593.346 71.1855 592.296 70.8926 590.945 70.5996C589.66 70.3229 588.447 69.9567 587.308 69.501C586.185 69.0452 585.2 68.4919 584.354 67.8408C583.507 67.1898 582.84 66.4167 582.352 65.5215C581.88 64.6263 581.644 63.6009 581.644 62.4453C581.644 61.3223 581.88 60.2643 582.352 59.2715C582.84 58.2624 583.548 57.3753 584.476 56.6104C585.42 55.8291 586.567 55.2188 587.918 54.7793C589.269 54.3236 590.807 54.0957 592.532 54.0957C594.909 54.0957 596.959 54.4619 598.685 55.1943C600.41 55.9105 601.736 56.9196 602.664 58.2217C603.608 59.5075 604.08 60.9967 604.08 62.6895H595.853C595.853 62.0221 595.739 61.4525 595.511 60.9805C595.299 60.5085 594.949 60.1504 594.461 59.9062C593.973 59.6458 593.322 59.5156 592.508 59.5156C591.938 59.5156 591.417 59.6214 590.945 59.833C590.49 60.0446 590.123 60.3376 589.847 60.7119C589.57 61.0863 589.432 61.5257 589.432 62.0303C589.432 62.3883 589.513 62.7139 589.676 63.0068C589.855 63.2835 590.123 63.5439 590.481 63.7881C590.84 64.016 591.295 64.2275 591.849 64.4229C592.402 64.6019 593.069 64.7646 593.851 64.9111C595.625 65.2367 597.285 65.7005 598.831 66.3027C600.377 66.9049 601.631 67.7594 602.591 68.8662C603.567 69.973 604.056 71.4622 604.056 73.334C604.056 74.5059 603.787 75.5882 603.25 76.5811C602.713 77.5576 601.94 78.4202 600.931 79.1689C599.922 79.9014 598.709 80.471 597.293 80.8779C595.877 81.2848 594.282 81.4883 592.508 81.4883C589.985 81.4883 587.853 81.0407 586.111 80.1455C584.37 79.234 583.051 78.0947 582.156 76.7275C581.277 75.3441 580.838 73.9443 580.838 72.5283H588.504C588.536 73.3421 588.732 74.0094 589.09 74.5303C589.464 75.0511 589.961 75.4336 590.579 75.6777C591.198 75.9219 591.914 76.0439 592.728 76.0439C593.476 76.0439 594.095 75.9382 594.583 75.7266C595.088 75.515 595.47 75.2301 595.73 74.8721C595.991 74.4977 596.121 74.0664 596.121 73.5781ZM606.888 68.0605V67.5479C606.888 65.611 607.164 63.8288 607.718 62.2012C608.271 60.5573 609.085 59.1331 610.159 57.9287C611.233 56.7243 612.56 55.7884 614.139 55.1211C615.717 54.4375 617.54 54.0957 619.607 54.0957C621.691 54.0957 623.522 54.4375 625.101 55.1211C626.696 55.7884 628.03 56.7243 629.104 57.9287C630.179 59.1331 630.993 60.5573 631.546 62.2012C632.099 63.8288 632.376 65.611 632.376 67.5479V68.0605C632.376 69.9811 632.099 71.7633 631.546 73.4072C630.993 75.0348 630.179 76.459 629.104 77.6797C628.03 78.8841 626.704 79.82 625.125 80.4873C623.546 81.1546 621.723 81.4883 619.656 81.4883C617.589 81.4883 615.758 81.1546 614.163 80.4873C612.568 79.82 611.233 78.8841 610.159 77.6797C609.085 76.459 608.271 75.0348 607.718 73.4072C607.164 71.7633 606.888 69.9811 606.888 68.0605ZM615.115 67.5479V68.0605C615.115 69.0534 615.188 69.9811 615.335 70.8438C615.481 71.7064 615.726 72.4632 616.067 73.1143C616.409 73.749 616.873 74.2454 617.459 74.6035C618.045 74.9616 618.777 75.1406 619.656 75.1406C620.519 75.1406 621.235 74.9616 621.805 74.6035C622.391 74.2454 622.854 73.749 623.196 73.1143C623.538 72.4632 623.782 71.7064 623.929 70.8438C624.075 69.9811 624.148 69.0534 624.148 68.0605V67.5479C624.148 66.5876 624.075 65.6842 623.929 64.8379C623.782 63.9753 623.538 63.2184 623.196 62.5674C622.854 61.9001 622.391 61.3792 621.805 61.0049C621.219 60.6305 620.486 60.4434 619.607 60.4434C618.745 60.4434 618.021 60.6305 617.435 61.0049C616.865 61.3792 616.409 61.9001 616.067 62.5674C615.726 63.2184 615.481 63.9753 615.335 64.8379C615.188 65.6842 615.115 66.5876 615.115 67.5479ZM645.267 45.4531L644.217 69.7451H637.527L636.478 45.4531H645.267ZM636.258 77.3135C636.258 76.1416 636.681 75.165 637.527 74.3838C638.374 73.5863 639.472 73.1875 640.823 73.1875C642.174 73.1875 643.265 73.5863 644.095 74.3838C644.941 75.165 645.364 76.1416 645.364 77.3135C645.364 78.4854 644.941 79.4701 644.095 80.2676C643.265 81.0488 642.174 81.4395 640.823 81.4395C639.472 81.4395 638.374 81.0488 637.527 80.2676C636.681 79.4701 636.258 78.4854 636.258 77.3135Z" fill="white"/>
</svg>
